<svg id="visual" viewBox="0 0 300 20" width="300" height="20" xmlns="http://www.w3.org/2000/svg" xmlns:xlink="http://www.w3.org/1999/xlink" version="1.1"><rect x="0" y="0" width="300" height="20" fill="#fff"></rect><path d="M0 4L7.2 6.2C14.3 8.3 28.7 12.7 43 13.7C57.3 14.7 71.7 12.3 86 10.3C100.3 8.3 114.7 6.7 128.8 6.8C143 7 157 9 171.2 9.7C185.3 10.3 199.7 9.7 214 10.3C228.3 11 242.7 13 257 13.2C271.3 13.3 285.7 11.7 292.8 10.8L300 10L300 21L292.8 21C285.7 21 271.3 21 257 21C242.7 21 228.3 21 214 21C199.7 21 185.3 21 171.2 21C157 21 143 21 128.8 21C114.7 21 100.3 21 86 21C71.7 21 57.3 21 43 21C28.7 21 14.3 21 7.2 21L0 21Z" fill="#d6d3d1" stroke-linecap="round" stroke-linejoin="miter"></path></svg>