<svg id="visual" viewBox="0 0 500 80" width="500" height="80" xmlns="http://www.w3.org/2000/svg" xmlns:xlink="http://www.w3.org/1999/xlink" version="1.1"><rect x="0" y="0" width="500" height="80" fill="#ffffff"></rect><path d="M0 66L9.3 66.8C18.7 67.7 37.3 69.3 55.8 69C74.3 68.7 92.7 66.3 111.2 62.3C129.7 58.3 148.3 52.7 166.8 53.5C185.3 54.3 203.7 61.7 222.2 66C240.7 70.3 259.3 71.7 277.8 64.5C296.3 57.3 314.7 41.7 333.2 42.2C351.7 42.7 370.3 59.3 388.8 62.8C407.3 66.3 425.7 56.7 444.2 47.5C462.7 38.3 481.3 29.7 490.7 25.3L500 21L500 0L490.7 0C481.3 0 462.7 0 444.2 0C425.7 0 407.3 0 388.8 0C370.3 0 351.7 0 333.2 0C314.7 0 296.3 0 277.8 0C259.3 0 240.7 0 222.2 0C203.7 0 185.3 0 166.8 0C148.3 0 129.7 0 111.2 0C92.7 0 74.3 0 55.8 0C37.3 0 18.7 0 9.3 0L0 0Z" fill="#fcb73d" stroke-linecap="round" stroke-linejoin="miter"></path></svg>