<svg id="visual" viewBox="0 0 500 80" width="500" height="80" xmlns="http://www.w3.org/2000/svg" xmlns:xlink="http://www.w3.org/1999/xlink" version="1.1"><rect x="0" y="0" width="500" height="80" fill="#FFFFFF"></rect><path d="M0 12L9.3 11.2C18.7 10.3 37.3 8.7 55.8 9C74.3 9.3 92.7 11.7 111.2 15.7C129.7 19.7 148.3 25.3 166.8 24.5C185.3 23.7 203.7 16.3 222.2 12C240.7 7.7 259.3 6.3 277.8 13.5C296.3 20.7 314.7 36.3 333.2 35.8C351.7 35.3 370.3 18.7 388.8 15.2C407.3 11.7 425.7 21.3 444.2 30.5C462.7 39.7 481.3 48.3 490.7 52.7L500 57L500 81L490.7 81C481.3 81 462.7 81 444.2 81C425.7 81 407.3 81 388.8 81C370.3 81 351.7 81 333.2 81C314.7 81 296.3 81 277.8 81C259.3 81 240.7 81 222.2 81C203.7 81 185.3 81 166.8 81C148.3 81 129.7 81 111.2 81C92.7 81 74.3 81 55.8 81C37.3 81 18.7 81 9.3 81L0 81Z" fill="#fcb73d" stroke-linecap="round" stroke-linejoin="miter"></path></svg>