<svg id="visual" viewBox="0 0 900 300" width="900" height="300" xmlns="http://www.w3.org/2000/svg" xmlns:xlink="http://www.w3.org/1999/xlink" version="1.1"><rect x="0" y="0" width="900" height="300" fill="#2a2726"></rect><path d="M0 117L69 172L138 192L208 217L277 194L346 163L415 218L485 141L554 232L623 172L692 127L762 149L831 129L900 111L900 301L831 301L762 301L692 301L623 301L554 301L485 301L415 301L346 301L277 301L208 301L138 301L69 301L0 301Z" fill="#44403c" stroke-linecap="square" stroke-linejoin="bevel"></path></svg>