<svg id="visual" viewBox="0 0 900 300" width="900" height="300" xmlns="http://www.w3.org/2000/svg" xmlns:xlink="http://www.w3.org/1999/xlink" version="1.1"><rect x="0" y="0" width="900" height="300" fill="#292524"></rect><path d="M0 209L21.5 208.7C43 208.3 86 207.7 128.8 204.5C171.7 201.3 214.3 195.7 257.2 202.7C300 209.7 343 229.3 385.8 238C428.7 246.7 471.3 244.3 514.2 234.3C557 224.3 600 206.7 642.8 206.7C685.7 206.7 728.3 224.3 771.2 227C814 229.7 857 217.3 878.5 211.2L900 205L900 301L878.5 301C857 301 814 301 771.2 301C728.3 301 685.7 301 642.8 301C600 301 557 301 514.2 301C471.3 301 428.7 301 385.8 301C343 301 300 301 257.2 301C214.3 301 171.7 301 128.8 301C86 301 43 301 21.5 301L0 301Z" fill="#44403c" stroke-linecap="round" stroke-linejoin="miter"></path></svg>